<svg xmlns="http://www.w3.org/2000/svg" viewBox="0 0 100.03 100.95"><defs><style>.cls-1{fill:#1e8bd8}</style></defs><title>Middel 2</title><g id="Laag_2" data-name="Laag 2"><g id="Layer_1" data-name="Layer 1"><path class="cls-1" d="M74.94 11.4l-7.5.45.18 2.95 14.16-.85L77.71 0l-2.84.82 2.4 8.22"/><path class="cls-1" d="M77.83 11l.07.22-.3.02M88.71 20.2l-2.31 2.31a46.12 46.12 0 0 1-3.13 61.69 46.11 46.11 0 0 1-59.82 4.55l-2.45-.4.17 2.75a49.32 49.32 0 0 0 67.54-70.9zM52.59 51.3a1.35 1.35 0 0 0 .63-1.79 1.48 1.48 0 0 0-1.86-.77h-3.91a1.35 1.35 0 0 0 0 2.69h3.9a2.29 2.29 0 0 0 1.24-.13zM77.83 11l-.57-2A49.32 49.32 0 0 0 9.73 79.1l2.33-2.34a46.12 46.12 0 0 1 4.69-59.66 46.12 46.12 0 0 1 58.18-5.7"/><path class="cls-1" d="M66 76.07a1.35 1.35 0 0 0 1.35 1.34 1.35 1.35 0 0 0 1.35-1.35v-7.13A11 11 0 0 0 57.69 58h-2.9v-3.4a11.33 11.33 0 0 0 5.38-7.23 3.65 3.65 0 0 0 2.9-3.55v-3.4a3.65 3.65 0 0 0-2.61-3.48v-.11a11.35 11.35 0 0 0-22.7 0v.11a3.63 3.63 0 0 0-2.64 3.48v3.42A3.63 3.63 0 0 0 38 47.39a11.33 11.33 0 0 0 5.4 7.21V58h-2.89a11 11 0 0 0-11 10.91v7.13a1.35 1.35 0 0 0 1.35 1.34 1.35 1.35 0 0 0 1.35-1.35v-7.1a8.27 8.27 0 0 1 8.29-8.22h.82L49.1 72l7.77-11.32h.82A8.27 8.27 0 0 1 66 68.93v7.13zm-8.25-39.31c-2.49-.95-3.41-4.76-3.42-4.76l-.55-2.36a8.63 8.63 0 0 1 3.97 7.12zM49 28.28a8.6 8.6 0 0 1 4.31 1.11l-1.46 2.2c-.15.23-3.54 5.22-11.41 5.37v-.12A8.65 8.65 0 0 1 49 28.28zm-8.47 17.64l-.17-1.41-1.41.25h-.18a.94.94 0 0 1-.95-.94v-3.4a.93.93 0 0 1 .82-.91 1.33 1.33 0 0 0 .47.11h.78l.57.08v-.09a17.47 17.47 0 0 0 12.06-4.71c.86 1.8 2.47 4.07 5.23 4.61v.17l.6-.08h.18l.76-.1h.13a.94.94 0 0 1 .95.94v3.42a.94.94 0 0 1-.95.94h-.16l-1.4-.24-.17 1.4a8.65 8.65 0 0 1-17.16 0zm8.57 21.34l-4.5-6.55h1.5v-5a11.41 11.41 0 0 0 6 0v5h1.5zM23.45 88.75l7.85 1.27.47-2.92-14-2.26.92 14.5 2.95-.18-.51-8.06"/></g></g></svg>